<svg width="44" height="45" viewBox="0 0 44 45" fill="none" xmlns="http://www.w3.org/2000/svg">
<path d="M22.1461 0.845215C10.1975 0.845215 0.52002 10.6703 0.52002 22.8011C0.52002 33.1195 7.49375 41.6833 16.9025 44.0975C16.7939 43.8228 16.7405 43.4379 16.7405 43.0548V39.3214H14.0368C12.5773 39.3214 11.2245 38.6636 10.63 37.4546C9.92692 36.1373 9.81833 34.1061 8.03487 32.843C7.49375 32.4038 7.92628 31.9647 8.52077 32.0189C9.65637 32.3478 10.5748 33.1176 11.4398 34.2687C12.3049 35.4216 12.684 35.6963 14.3055 35.6963C15.062 35.6963 16.251 35.6421 17.3332 35.4758C17.9277 33.9379 18.9547 32.5664 20.1989 31.9087C12.9546 31.0304 9.4944 27.4072 9.4944 22.4667C9.4944 20.3253 10.4128 18.2941 11.9276 16.5376C11.4417 14.8353 10.792 11.3224 12.1448 9.95085C15.3896 9.95085 17.335 12.0923 17.8209 12.6398C19.4424 12.0904 21.2277 11.7615 23.0646 11.7615C24.9566 11.7615 26.6867 12.0904 28.3082 12.6398C28.7941 12.0904 30.7414 9.95085 33.9844 9.95085C35.2819 11.2682 34.6875 14.8353 34.1463 16.5376C35.6611 18.2399 36.5261 20.3253 36.5261 22.4667C36.5261 27.4072 33.1193 31.0304 25.9303 31.7984C27.9309 32.8411 29.3371 35.8047 29.3371 38.0003V43.0006C29.3371 43.165 29.2837 43.3295 29.2837 43.4939C37.717 40.5303 43.7723 32.4076 43.7723 22.8011C43.7723 10.6703 34.0948 0.845215 22.1461 0.845215Z" fill="black"/>
</svg>
