<svg width="37" height="37" viewBox="0 0 37 37" fill="none" xmlns="http://www.w3.org/2000/svg">
<path fill-rule="evenodd" clip-rule="evenodd" d="M0.424317 3.74796C0.424317 2.95276 0.740211 2.19012 1.30251 1.62783C1.8648 1.06553 2.62744 0.749638 3.42264 0.749638H33.3113C33.7054 0.748994 34.0957 0.826085 34.46 0.976497C34.8242 1.12691 35.1552 1.34769 35.434 1.62619C35.7128 1.9047 35.934 2.23546 36.0848 2.59955C36.2356 2.96363 36.3131 3.35388 36.3129 3.74796V33.6366C36.3133 34.0308 36.236 34.4212 36.0854 34.7854C35.9348 35.1497 35.7139 35.4807 35.4353 35.7594C35.1566 36.0382 34.8258 36.2593 34.4616 36.4101C34.0974 36.5609 33.7071 36.6384 33.3129 36.6382H3.42264C3.02876 36.6382 2.63874 36.5606 2.27486 36.4098C1.91098 36.259 1.58037 36.038 1.30193 35.7594C1.02349 35.4809 0.802667 35.1501 0.652083 34.7862C0.501498 34.4222 0.424103 34.0321 0.424317 33.6382V3.74796ZM14.6297 14.433H19.4893V16.8734C20.1908 15.4705 21.9852 14.2079 24.6817 14.2079C29.8513 14.2079 31.0764 17.0023 31.0764 22.1294V31.6269H25.8448V23.2974C25.8448 20.3774 25.1434 18.7298 23.362 18.7298C20.8906 18.7298 19.8629 20.5063 19.8629 23.2974V31.6269H14.6297V14.433ZM5.65752 31.4034H10.8907V14.2079H5.65752V31.4017V31.4034ZM11.6395 8.59945C11.6494 9.04752 11.5696 9.49305 11.405 9.90989C11.2403 10.3267 10.9941 10.7065 10.6807 11.0269C10.3673 11.3473 9.99302 11.6018 9.57991 11.7756C9.16679 11.9494 8.72312 12.0389 8.27494 12.0389C7.82676 12.0389 7.38309 11.9494 6.96998 11.7756C6.55686 11.6018 6.18262 11.3473 5.86921 11.0269C5.55581 10.7065 5.30956 10.3267 5.1449 9.90989C4.98025 9.49305 4.90052 9.04752 4.91039 8.59945C4.92976 7.71994 5.29274 6.88298 5.92161 6.26781C6.55047 5.65264 7.39522 5.30817 8.27494 5.30817C9.15466 5.30817 9.99941 5.65264 10.6283 6.26781C11.2571 6.88298 11.6201 7.71994 11.6395 8.59945Z" fill="#0A66C2"/>
</svg>
