<svg width="42" height="43" viewBox="0 0 42 43" fill="none" xmlns="http://www.w3.org/2000/svg">
<path fill-rule="evenodd" clip-rule="evenodd" d="M30.2753 25.572C29.7598 25.3155 27.2326 24.0795 26.7621 23.9073C26.2916 23.7369 25.9491 23.6525 25.6049 24.1655C25.2624 24.6751 24.2782 25.8285 23.9789 26.1693C23.6779 26.5119 23.3787 26.5532 22.8649 26.2985C22.3512 26.0402 20.6941 25.5014 18.7308 23.7593C17.2034 22.4028 16.1707 20.7277 15.8715 20.2147C15.5722 19.7035 15.8386 19.4263 16.0964 19.1715C16.3281 18.9426 16.6101 18.5742 16.8678 18.2764C17.1256 17.9768 17.2103 17.7634 17.3816 17.4208C17.5546 17.0799 17.4681 16.7821 17.3383 16.5256C17.2103 16.2691 16.1828 13.7506 15.7539 12.7263C15.337 11.7296 14.9132 11.8656 14.5984 11.8484C14.2974 11.8346 13.9549 11.8311 13.6124 11.8311C13.2699 11.8311 12.7129 11.9585 12.2424 12.4715C11.7702 12.9828 10.4435 14.2206 10.4435 16.7391C10.4435 19.2559 12.284 21.6883 12.5417 22.0309C12.7994 22.3718 16.1656 27.5396 21.322 29.7552C22.5501 30.282 23.5067 30.597 24.2522 30.8311C25.4838 31.2219 26.6047 31.1668 27.4903 31.0342C28.4763 30.8879 30.5313 29.7965 30.9603 28.6018C31.3875 27.4071 31.3875 26.3828 31.2595 26.1693C31.1315 25.9559 30.789 25.8285 30.2735 25.572H30.2753ZM20.8965 38.3161H20.8895C17.8269 38.3167 14.8204 37.4973 12.1854 35.9439L11.5626 35.5755L5.08985 37.266L6.81789 30.986L6.41139 30.3422C4.69916 27.6298 3.79304 24.4905 3.79772 21.2872C3.80118 11.9052 11.471 4.27212 20.9034 4.27212C25.47 4.27212 29.7633 6.04525 32.991 9.26097C34.583 10.8388 35.8449 12.7152 36.7036 14.7816C37.5622 16.8479 38.0006 19.0632 37.9935 21.2993C37.99 30.6813 30.3202 38.3161 20.8965 38.3161ZM35.4473 6.81819C33.5414 4.90894 31.2737 3.39509 28.7757 2.36438C26.2777 1.33367 23.5989 0.806581 20.8947 0.813669C9.55784 0.813669 0.327803 9.99776 0.324344 21.2855C0.322614 24.8937 1.2688 28.4159 3.06948 31.5197L0.151367 42.1292L11.0558 39.2819C14.0723 40.9175 17.4527 41.7745 20.8878 41.7746H20.8965C32.2334 41.7746 41.4634 32.5905 41.4669 21.301C41.4752 18.6108 40.9475 15.9456 39.9143 13.4597C38.881 10.9738 37.3627 8.71642 35.4473 6.81819Z" fill="#49C256"/>
</svg>
